<svg width="500" height="500" viewBox="0 0 500 500" fill="none" xmlns="http://www.w3.org/2000/svg">
  <path fill-rule="evenodd" clip-rule="evenodd"
    d="M155.71 104.878C149.201 111.387 149.201 121.94 155.71 128.448L238.205 210.944C244.714 217.453 255.267 217.453 261.776 210.944L344.27 128.448C350.78 121.94 350.78 111.387 344.27 104.878L261.776 22.3824C255.267 15.8737 244.714 15.8737 238.205 22.3824L155.71 104.878ZM249.99 175.589L191.065 116.663L249.99 57.7377L308.916 116.663L249.99 175.589ZM289.043 238.211C282.534 244.72 282.534 255.273 289.043 261.782L371.54 344.277C378.047 350.787 388.6 350.787 395.11 344.277L477.603 261.782C484.113 255.273 484.113 244.72 477.603 238.211L395.11 155.716C388.6 149.207 378.047 149.207 371.54 155.716L289.043 238.211ZM383.323 308.922L324.398 249.997L383.323 191.071L442.25 249.997L383.323 308.922ZM155.71 395.117C149.201 388.607 149.201 378.053 155.71 371.543L238.205 289.049C244.714 282.54 255.267 282.54 261.776 289.049L344.27 371.543C350.78 378.053 350.78 388.607 344.27 395.117L261.776 477.61C255.267 484.12 244.714 484.12 238.205 477.61L155.71 395.117ZM191.065 383.33L249.99 442.257L308.916 383.33L249.99 324.404L191.065 383.33ZM22.3763 238.216C15.8675 244.725 15.8675 255.278 22.3763 261.787L104.872 344.283C111.381 350.79 121.934 350.79 128.442 344.283L210.938 261.787C217.447 255.278 217.447 244.725 210.938 238.216L128.442 155.721C121.934 149.212 111.381 149.212 104.872 155.721L22.3763 238.216ZM116.657 308.927L57.7317 250.002L116.657 191.076L175.583 250.002L116.657 308.927Z"
    fill="url(#paint0_linear_1_9)" />
  <defs>
    <linearGradient id="paint0_linear_1_9" x1="249.99" y1="17.5009" x2="249.99" y2="482.493"
      gradientUnits="userSpaceOnUse">
      <stop stop-color="#8DA4EF" />
      <stop offset="1" stop-color="#AA99EC" stop-opacity="0.75" />
    </linearGradient>
  </defs>
</svg>