<svg width="631" height="342" viewBox="0 0 631 342" fill="none" xmlns="http://www.w3.org/2000/svg">
  <path
    d="M55.88 243.072C55.4533 243.797 55.0053 244.331 54.536 244.672C54.0667 245.013 53.4693 245.184 52.744 245.184C51.976 245.184 51.1013 244.843 50.12 244.16C49.1387 243.435 47.9013 242.645 46.408 241.792C44.9573 240.896 43.208 240.107 41.16 239.424C39.112 238.699 36.6587 238.336 33.8 238.336C31.112 238.336 28.744 238.699 26.696 239.424C24.6907 240.107 23.0053 241.067 21.64 242.304C20.2747 243.499 19.2293 244.928 18.504 246.592C17.8213 248.213 17.48 249.984 17.48 251.904C17.48 254.379 18.0987 256.427 19.336 258.048C20.616 259.669 22.28 261.056 24.328 262.208C26.376 263.36 28.7013 264.363 31.304 265.216C33.9067 266.069 36.5733 266.965 39.304 267.904C42.0347 268.8 44.7013 269.845 47.304 271.04C49.9067 272.235 52.232 273.749 54.28 275.584C56.328 277.376 57.9707 279.595 59.208 282.24C60.488 284.843 61.128 288.043 61.128 291.84C61.128 295.893 60.424 299.691 59.016 303.232C57.6507 306.773 55.6453 309.867 53 312.512C50.3547 315.157 47.0907 317.248 43.208 318.784C39.368 320.277 34.9947 321.024 30.088 321.024C27.144 321.024 24.2853 320.725 21.512 320.128C18.7387 319.573 16.1147 318.784 13.64 317.76C11.1653 316.693 8.84 315.435 6.664 313.984C4.53067 312.491 2.61067 310.827 0.904 308.992L4.808 302.464C5.192 301.952 5.64 301.525 6.152 301.184C6.70667 300.843 7.32533 300.672 8.008 300.672C8.904 300.672 9.928 301.141 11.08 302.08C12.2747 303.019 13.7253 304.064 15.432 305.216C17.1813 306.325 19.2507 307.349 21.64 308.288C24.072 309.227 27.016 309.696 30.472 309.696C33.288 309.696 35.8053 309.333 38.024 308.608C40.2427 307.84 42.0987 306.773 43.592 305.408C45.128 304 46.3013 302.315 47.112 300.352C47.9227 298.389 48.328 296.213 48.328 293.824C48.328 291.136 47.7093 288.939 46.472 287.232C45.2347 285.525 43.592 284.096 41.544 282.944C39.496 281.792 37.1707 280.811 34.568 280C31.9653 279.189 29.2987 278.357 26.568 277.504C23.8373 276.608 21.1707 275.584 18.568 274.432C15.9653 273.28 13.64 271.787 11.592 269.952C9.544 268.075 7.90133 265.749 6.664 262.976C5.42667 260.16 4.808 256.704 4.808 252.608C4.808 249.323 5.448 246.144 6.728 243.072C8.008 240 9.864 237.291 12.296 234.944C14.7707 232.555 17.8 230.656 21.384 229.248C24.968 227.797 29.064 227.072 33.672 227.072C38.8347 227.072 43.5707 227.904 47.88 229.568C52.232 231.189 56.008 233.536 59.208 236.608L55.88 243.072ZM128.85 254.976L92.754 338.88C92.37 339.819 91.858 340.544 91.218 341.056C90.578 341.568 89.6393 341.824 88.402 341.824H79.122L91.026 315.904L64.338 254.976H75.218C76.2847 254.976 77.1167 255.232 77.714 255.744C78.3113 256.256 78.738 256.832 78.994 257.472L95.506 296.512C95.8473 297.493 96.1673 298.496 96.466 299.52C96.8073 300.501 97.0847 301.483 97.298 302.464C97.5967 301.44 97.9167 300.437 98.258 299.456C98.5993 298.432 98.962 297.429 99.346 296.448L115.282 257.472C115.581 256.747 116.05 256.149 116.69 255.68C117.33 255.211 118.055 254.976 118.866 254.976H128.85ZM175.604 266.176C175.263 266.731 174.9 267.136 174.516 267.392C174.132 267.605 173.641 267.712 173.044 267.712C172.361 267.712 171.593 267.477 170.74 267.008C169.929 266.539 168.927 266.027 167.732 265.472C166.58 264.917 165.215 264.405 163.636 263.936C162.057 263.467 160.18 263.232 158.004 263.232C156.212 263.232 154.569 263.467 153.076 263.936C151.625 264.363 150.388 264.981 149.364 265.792C148.34 266.56 147.551 267.499 146.996 268.608C146.441 269.675 146.164 270.827 146.164 272.064C146.164 273.685 146.633 275.029 147.572 276.096C148.553 277.163 149.812 278.08 151.348 278.848C152.927 279.616 154.697 280.32 156.66 280.96C158.665 281.557 160.692 282.197 162.74 282.88C164.831 283.563 166.857 284.352 168.82 285.248C170.825 286.101 172.596 287.189 174.132 288.512C175.711 289.792 176.969 291.349 177.908 293.184C178.889 295.019 179.38 297.259 179.38 299.904C179.38 302.933 178.825 305.749 177.716 308.352C176.649 310.912 175.049 313.131 172.916 315.008C170.825 316.885 168.223 318.357 165.108 319.424C161.993 320.491 158.431 321.024 154.42 321.024C149.94 321.024 145.801 320.277 142.004 318.784C138.207 317.291 135.028 315.392 132.468 313.088L135.412 308.288C135.753 307.691 136.18 307.243 136.692 306.944C137.204 306.603 137.887 306.432 138.74 306.432C139.551 306.432 140.383 306.731 141.236 307.328C142.089 307.925 143.113 308.587 144.308 309.312C145.503 309.995 146.953 310.635 148.66 311.232C150.367 311.787 152.5 312.064 155.06 312.064C157.193 312.064 159.049 311.808 160.628 311.296C162.207 310.741 163.508 310.016 164.532 309.12C165.599 308.181 166.388 307.115 166.9 305.92C167.412 304.725 167.668 303.467 167.668 302.144C167.668 300.437 167.177 299.029 166.196 297.92C165.257 296.768 163.999 295.787 162.42 294.976C160.884 294.165 159.113 293.461 157.108 292.864C155.103 292.267 153.055 291.627 150.964 290.944C148.873 290.261 146.825 289.472 144.82 288.576C142.815 287.68 141.023 286.549 139.444 285.184C137.908 283.819 136.649 282.155 135.668 280.192C134.729 278.229 134.26 275.84 134.26 273.024C134.26 270.507 134.772 268.096 135.796 265.792C136.863 263.488 138.377 261.461 140.34 259.712C142.345 257.963 144.799 256.576 147.7 255.552C150.644 254.485 153.993 253.952 157.748 253.952C162.057 253.952 165.94 254.635 169.396 256C172.895 257.365 175.881 259.243 178.356 261.632L175.604 266.176ZM213.245 321.024C207.997 321.024 203.944 319.552 201.085 316.608C198.269 313.664 196.861 309.461 196.861 304V265.088H189.309C188.584 265.088 187.965 264.875 187.453 264.448C186.984 263.979 186.749 263.296 186.749 262.4V257.344L197.309 255.872L200.125 236.48C200.296 235.755 200.616 235.2 201.085 234.816C201.597 234.389 202.237 234.176 203.005 234.176H209.341V256H227.773V265.088H209.341V303.168C209.341 305.728 209.96 307.648 211.197 308.928C212.477 310.165 214.098 310.784 216.061 310.784C217.213 310.784 218.194 310.635 219.005 310.336C219.858 310.037 220.584 309.717 221.181 309.376C221.778 308.992 222.29 308.651 222.717 308.352C223.144 308.053 223.528 307.904 223.869 307.904C224.296 307.904 224.616 308.011 224.829 308.224C225.085 308.395 225.341 308.693 225.597 309.12L229.309 315.136C227.261 317.013 224.829 318.464 222.013 319.488C219.197 320.512 216.274 321.024 213.245 321.024ZM281.965 280.256C281.965 277.781 281.602 275.499 280.877 273.408C280.194 271.317 279.17 269.504 277.805 267.968C276.44 266.432 274.776 265.237 272.813 264.384C270.85 263.531 268.589 263.104 266.029 263.104C260.781 263.104 256.642 264.619 253.613 267.648C250.626 270.677 248.728 274.88 247.917 280.256H281.965ZM292.269 310.72C290.733 312.512 288.962 314.069 286.957 315.392C284.952 316.672 282.818 317.717 280.557 318.528C278.296 319.339 275.949 319.936 273.517 320.32C271.128 320.704 268.76 320.896 266.413 320.896C261.933 320.896 257.773 320.149 253.933 318.656C250.136 317.12 246.829 314.901 244.013 312C241.24 309.056 239.064 305.429 237.485 301.12C235.949 296.768 235.181 291.776 235.181 286.144C235.181 281.621 235.885 277.419 237.293 273.536C238.701 269.611 240.706 266.197 243.309 263.296C245.954 260.395 249.176 258.112 252.973 256.448C256.77 254.784 261.037 253.952 265.773 253.952C269.741 253.952 273.389 254.613 276.717 255.936C280.088 257.216 282.989 259.093 285.421 261.568C287.853 264.043 289.752 267.093 291.117 270.72C292.525 274.347 293.229 278.485 293.229 283.136C293.229 285.056 293.016 286.357 292.589 287.04C292.162 287.68 291.373 288 290.221 288H247.597C247.725 291.883 248.28 295.275 249.261 298.176C250.242 301.035 251.586 303.424 253.293 305.344C255.042 307.264 257.112 308.693 259.501 309.632C261.89 310.571 264.557 311.04 267.501 311.04C270.274 311.04 272.664 310.72 274.669 310.08C276.717 309.44 278.466 308.757 279.917 308.032C281.41 307.264 282.648 306.56 283.629 305.92C284.653 305.28 285.549 304.96 286.317 304.96C287.341 304.96 288.13 305.344 288.685 306.112L292.269 310.72ZM306.643 320V254.976H314.131C315.88 254.976 316.968 255.808 317.395 257.472L318.291 263.68C320.68 260.821 323.326 258.496 326.227 256.704C329.171 254.869 332.606 253.952 336.531 253.952C340.84 253.952 344.339 255.147 347.027 257.536C349.715 259.883 351.678 263.083 352.915 267.136C353.854 264.832 355.07 262.848 356.563 261.184C358.056 259.52 359.72 258.155 361.555 257.088C363.39 256.021 365.331 255.232 367.379 254.72C369.47 254.208 371.582 253.952 373.715 253.952C377.171 253.952 380.243 254.507 382.931 255.616C385.662 256.683 387.966 258.261 389.843 260.352C391.72 262.443 393.15 265.024 394.131 268.096C395.112 271.168 395.603 274.667 395.603 278.592V320H383.059V278.592C383.059 273.728 381.992 270.059 379.859 267.584C377.768 265.109 374.696 263.872 370.643 263.872C368.851 263.872 367.144 264.192 365.523 264.832C363.902 265.429 362.472 266.347 361.235 267.584C360.04 268.821 359.08 270.357 358.355 272.192C357.672 274.027 357.331 276.16 357.331 278.592V320H344.787V278.592C344.787 273.557 343.784 269.845 341.779 267.456C339.774 265.067 336.83 263.872 332.947 263.872C330.259 263.872 327.763 264.576 325.459 265.984C323.155 267.392 321.043 269.312 319.123 271.744V320H306.643ZM461.38 243.072C460.953 243.797 460.505 244.331 460.036 244.672C459.567 245.013 458.969 245.184 458.244 245.184C457.476 245.184 456.601 244.843 455.62 244.16C454.639 243.435 453.401 242.645 451.908 241.792C450.457 240.896 448.708 240.107 446.66 239.424C444.612 238.699 442.159 238.336 439.3 238.336C436.612 238.336 434.244 238.699 432.196 239.424C430.191 240.107 428.505 241.067 427.14 242.304C425.775 243.499 424.729 244.928 424.004 246.592C423.321 248.213 422.98 249.984 422.98 251.904C422.98 254.379 423.599 256.427 424.836 258.048C426.116 259.669 427.78 261.056 429.828 262.208C431.876 263.36 434.201 264.363 436.804 265.216C439.407 266.069 442.073 266.965 444.804 267.904C447.535 268.8 450.201 269.845 452.804 271.04C455.407 272.235 457.732 273.749 459.78 275.584C461.828 277.376 463.471 279.595 464.708 282.24C465.988 284.843 466.628 288.043 466.628 291.84C466.628 295.893 465.924 299.691 464.516 303.232C463.151 306.773 461.145 309.867 458.5 312.512C455.855 315.157 452.591 317.248 448.708 318.784C444.868 320.277 440.495 321.024 435.588 321.024C432.644 321.024 429.785 320.725 427.012 320.128C424.239 319.573 421.615 318.784 419.14 317.76C416.665 316.693 414.34 315.435 412.164 313.984C410.031 312.491 408.111 310.827 406.404 308.992L410.308 302.464C410.692 301.952 411.14 301.525 411.652 301.184C412.207 300.843 412.825 300.672 413.508 300.672C414.404 300.672 415.428 301.141 416.58 302.08C417.775 303.019 419.225 304.064 420.932 305.216C422.681 306.325 424.751 307.349 427.14 308.288C429.572 309.227 432.516 309.696 435.972 309.696C438.788 309.696 441.305 309.333 443.524 308.608C445.743 307.84 447.599 306.773 449.092 305.408C450.628 304 451.801 302.315 452.612 300.352C453.423 298.389 453.828 296.213 453.828 293.824C453.828 291.136 453.209 288.939 451.972 287.232C450.735 285.525 449.092 284.096 447.044 282.944C444.996 281.792 442.671 280.811 440.068 280C437.465 279.189 434.799 278.357 432.068 277.504C429.337 276.608 426.671 275.584 424.068 274.432C421.465 273.28 419.14 271.787 417.092 269.952C415.044 268.075 413.401 265.749 412.164 262.976C410.927 260.16 410.308 256.704 410.308 252.608C410.308 249.323 410.948 246.144 412.228 243.072C413.508 240 415.364 237.291 417.796 234.944C420.271 232.555 423.3 230.656 426.884 229.248C430.468 227.797 434.564 227.072 439.172 227.072C444.335 227.072 449.071 227.904 453.38 229.568C457.732 231.189 461.508 233.536 464.708 236.608L461.38 243.072ZM508.23 253.952C513.009 253.952 517.318 254.741 521.158 256.32C525.041 257.856 528.326 260.096 531.014 263.04C533.745 265.941 535.835 269.461 537.286 273.6C538.737 277.696 539.462 282.304 539.462 287.424C539.462 292.544 538.737 297.173 537.286 301.312C535.835 305.451 533.745 308.971 531.014 311.872C528.326 314.773 525.041 317.013 521.158 318.592C517.318 320.128 513.009 320.896 508.23 320.896C503.409 320.896 499.057 320.128 495.174 318.592C491.334 317.013 488.049 314.773 485.318 311.872C482.587 308.971 480.475 305.451 478.982 301.312C477.531 297.173 476.806 292.544 476.806 287.424C476.806 282.304 477.531 277.696 478.982 273.6C480.475 269.461 482.587 265.941 485.318 263.04C488.049 260.096 491.334 257.856 495.174 256.32C499.057 254.741 503.409 253.952 508.23 253.952ZM508.23 311.168C514.374 311.168 518.961 309.099 521.99 304.96C525.019 300.821 526.534 294.997 526.534 287.488C526.534 279.979 525.019 274.155 521.99 270.016C518.961 265.835 514.374 263.744 508.23 263.744C502.001 263.744 497.35 265.835 494.278 270.016C491.249 274.155 489.734 279.979 489.734 287.488C489.734 294.997 491.249 300.821 494.278 304.96C497.35 309.099 502.001 311.168 508.23 311.168ZM610.389 265.088V303.168C610.389 305.728 611.008 307.648 612.245 308.928C613.482 310.165 615.104 310.784 617.109 310.784C618.261 310.784 619.242 310.635 620.053 310.336C620.906 310.037 621.632 309.717 622.229 309.376C622.826 308.992 623.338 308.651 623.765 308.352C624.192 308.053 624.576 307.904 624.917 307.904C625.301 307.904 625.621 308.011 625.877 308.224C626.133 308.395 626.389 308.693 626.645 309.12L630.357 315.136C628.309 317.013 625.856 318.464 622.997 319.488C620.181 320.512 617.258 321.024 614.229 321.024C608.981 321.024 604.928 319.552 602.069 316.608C599.253 313.664 597.845 309.461 597.845 304V265.088H568.725V320H556.181V265.216L549.397 264.384C548.416 264.171 547.605 263.829 546.965 263.36C546.368 262.848 546.069 262.123 546.069 261.184V256H556.181V250.112C556.181 246.4 556.714 243.093 557.781 240.192C558.848 237.291 560.362 234.837 562.325 232.832C564.33 230.784 566.72 229.248 569.493 228.224C572.309 227.157 575.466 226.624 578.965 226.624C581.909 226.624 584.618 227.051 587.093 227.904L586.837 234.176C586.794 234.731 586.624 235.157 586.325 235.456C586.026 235.712 585.621 235.904 585.109 236.032C584.64 236.16 584.042 236.245 583.317 236.288C582.634 236.288 581.888 236.288 581.077 236.288C579.157 236.288 577.408 236.523 575.829 236.992C574.25 237.461 572.906 238.251 571.797 239.36C570.688 240.469 569.834 241.941 569.237 243.776C568.64 245.568 568.341 247.808 568.341 250.496V256H598.293L601.173 236.48C601.301 235.755 601.6 235.2 602.069 234.816C602.581 234.389 603.221 234.176 603.989 234.176H610.389V256H628.821V265.088H610.389Z"
    fill="#1A1523" />
  <path fill-rule="evenodd" clip-rule="evenodd"
    d="M277.284 41.9512C274.68 44.5548 274.68 48.7759 277.284 51.3793L310.282 84.3777C312.886 86.9812 317.107 86.9812 319.71 84.3777L352.708 51.3793C355.312 48.7759 355.312 44.5548 352.708 41.9512L319.71 8.95294C317.107 6.34945 312.886 6.34945 310.282 8.95294L277.284 41.9512ZM314.996 70.2355L291.426 46.6653L314.996 23.0951L338.566 46.6653L314.996 70.2355ZM330.617 95.2845C328.014 97.8881 328.014 102.109 330.617 104.713L363.616 137.711C366.219 140.315 370.44 140.315 373.044 137.711L406.041 104.713C408.645 102.109 408.645 97.8881 406.041 95.2845L373.044 62.2863C370.44 59.6828 366.219 59.6828 363.616 62.2863L330.617 95.2845ZM368.329 123.569L344.759 99.9986L368.329 76.4284L391.9 99.9986L368.329 123.569ZM277.284 158.047C274.68 155.443 274.68 151.221 277.284 148.617L310.282 115.62C312.886 113.016 317.107 113.016 319.71 115.62L352.708 148.617C355.312 151.221 355.312 155.443 352.708 158.047L319.71 191.044C317.107 193.648 312.886 193.648 310.282 191.044L277.284 158.047ZM291.426 153.332L314.996 176.903L338.566 153.332L314.996 129.762L291.426 153.332ZM223.951 95.2865C221.347 97.89 221.347 102.111 223.951 104.715L256.949 137.713C259.552 140.316 263.773 140.316 266.377 137.713L299.375 104.715C301.979 102.111 301.979 97.89 299.375 95.2865L266.377 62.2883C263.773 59.6848 259.552 59.6848 256.949 62.2883L223.951 95.2865ZM261.663 123.571L238.093 100.001L261.663 76.4304L285.233 100.001L261.663 123.571Z"
    fill="url(#paint0_linear_0_1)" />
  <defs>
    <linearGradient id="paint0_linear_0_1" x1="314.996" y1="7.00032" x2="314.996" y2="192.997"
      gradientUnits="userSpaceOnUse">
      <stop stop-color="#8DA4EF" />
      <stop offset="1" stop-color="#AA99EC" stop-opacity="0.75" />
    </linearGradient>
  </defs>
</svg>