<svg width="631" height="328" viewBox="0 0 631 328" fill="none" xmlns="http://www.w3.org/2000/svg">
  <path
    d="M55.88 229.072C55.4533 229.797 55.0053 230.331 54.536 230.672C54.0667 231.013 53.4693 231.184 52.744 231.184C51.976 231.184 51.1013 230.843 50.12 230.16C49.1387 229.435 47.9013 228.645 46.408 227.792C44.9573 226.896 43.208 226.107 41.16 225.424C39.112 224.699 36.6587 224.336 33.8 224.336C31.112 224.336 28.744 224.699 26.696 225.424C24.6907 226.107 23.0053 227.067 21.64 228.304C20.2747 229.499 19.2293 230.928 18.504 232.592C17.8213 234.213 17.48 235.984 17.48 237.904C17.48 240.379 18.0987 242.427 19.336 244.048C20.616 245.669 22.28 247.056 24.328 248.208C26.376 249.36 28.7013 250.363 31.304 251.216C33.9067 252.069 36.5733 252.965 39.304 253.904C42.0347 254.8 44.7013 255.845 47.304 257.04C49.9067 258.235 52.232 259.749 54.28 261.584C56.328 263.376 57.9707 265.595 59.208 268.24C60.488 270.843 61.128 274.043 61.128 277.84C61.128 281.893 60.424 285.691 59.016 289.232C57.6507 292.773 55.6453 295.867 53 298.512C50.3547 301.157 47.0907 303.248 43.208 304.784C39.368 306.277 34.9947 307.024 30.088 307.024C27.144 307.024 24.2853 306.725 21.512 306.128C18.7387 305.573 16.1147 304.784 13.64 303.76C11.1653 302.693 8.84 301.435 6.664 299.984C4.53067 298.491 2.61067 296.827 0.904 294.992L4.808 288.464C5.192 287.952 5.64 287.525 6.152 287.184C6.70667 286.843 7.32533 286.672 8.008 286.672C8.904 286.672 9.928 287.141 11.08 288.08C12.2747 289.019 13.7253 290.064 15.432 291.216C17.1813 292.325 19.2507 293.349 21.64 294.288C24.072 295.227 27.016 295.696 30.472 295.696C33.288 295.696 35.8053 295.333 38.024 294.608C40.2427 293.84 42.0987 292.773 43.592 291.408C45.128 290 46.3013 288.315 47.112 286.352C47.9227 284.389 48.328 282.213 48.328 279.824C48.328 277.136 47.7093 274.939 46.472 273.232C45.2347 271.525 43.592 270.096 41.544 268.944C39.496 267.792 37.1707 266.811 34.568 266C31.9653 265.189 29.2987 264.357 26.568 263.504C23.8373 262.608 21.1707 261.584 18.568 260.432C15.9653 259.28 13.64 257.787 11.592 255.952C9.544 254.075 7.90133 251.749 6.664 248.976C5.42667 246.16 4.808 242.704 4.808 238.608C4.808 235.323 5.448 232.144 6.728 229.072C8.008 226 9.864 223.291 12.296 220.944C14.7707 218.555 17.8 216.656 21.384 215.248C24.968 213.797 29.064 213.072 33.672 213.072C38.8347 213.072 43.5707 213.904 47.88 215.568C52.232 217.189 56.008 219.536 59.208 222.608L55.88 229.072ZM128.85 240.976L92.754 324.88C92.37 325.819 91.858 326.544 91.218 327.056C90.578 327.568 89.6393 327.824 88.402 327.824H79.122L91.026 301.904L64.338 240.976H75.218C76.2847 240.976 77.1167 241.232 77.714 241.744C78.3113 242.256 78.738 242.832 78.994 243.472L95.506 282.512C95.8473 283.493 96.1673 284.496 96.466 285.52C96.8073 286.501 97.0847 287.483 97.298 288.464C97.5967 287.44 97.9167 286.437 98.258 285.456C98.5993 284.432 98.962 283.429 99.346 282.448L115.282 243.472C115.581 242.747 116.05 242.149 116.69 241.68C117.33 241.211 118.055 240.976 118.866 240.976H128.85ZM175.604 252.176C175.263 252.731 174.9 253.136 174.516 253.392C174.132 253.605 173.641 253.712 173.044 253.712C172.361 253.712 171.593 253.477 170.74 253.008C169.929 252.539 168.927 252.027 167.732 251.472C166.58 250.917 165.215 250.405 163.636 249.936C162.057 249.467 160.18 249.232 158.004 249.232C156.212 249.232 154.569 249.467 153.076 249.936C151.625 250.363 150.388 250.981 149.364 251.792C148.34 252.56 147.551 253.499 146.996 254.608C146.441 255.675 146.164 256.827 146.164 258.064C146.164 259.685 146.633 261.029 147.572 262.096C148.553 263.163 149.812 264.08 151.348 264.848C152.927 265.616 154.697 266.32 156.66 266.96C158.665 267.557 160.692 268.197 162.74 268.88C164.831 269.563 166.857 270.352 168.82 271.248C170.825 272.101 172.596 273.189 174.132 274.512C175.711 275.792 176.969 277.349 177.908 279.184C178.889 281.019 179.38 283.259 179.38 285.904C179.38 288.933 178.825 291.749 177.716 294.352C176.649 296.912 175.049 299.131 172.916 301.008C170.825 302.885 168.223 304.357 165.108 305.424C161.993 306.491 158.431 307.024 154.42 307.024C149.94 307.024 145.801 306.277 142.004 304.784C138.207 303.291 135.028 301.392 132.468 299.088L135.412 294.288C135.753 293.691 136.18 293.243 136.692 292.944C137.204 292.603 137.887 292.432 138.74 292.432C139.551 292.432 140.383 292.731 141.236 293.328C142.089 293.925 143.113 294.587 144.308 295.312C145.503 295.995 146.953 296.635 148.66 297.232C150.367 297.787 152.5 298.064 155.06 298.064C157.193 298.064 159.049 297.808 160.628 297.296C162.207 296.741 163.508 296.016 164.532 295.12C165.599 294.181 166.388 293.115 166.9 291.92C167.412 290.725 167.668 289.467 167.668 288.144C167.668 286.437 167.177 285.029 166.196 283.92C165.257 282.768 163.999 281.787 162.42 280.976C160.884 280.165 159.113 279.461 157.108 278.864C155.103 278.267 153.055 277.627 150.964 276.944C148.873 276.261 146.825 275.472 144.82 274.576C142.815 273.68 141.023 272.549 139.444 271.184C137.908 269.819 136.649 268.155 135.668 266.192C134.729 264.229 134.26 261.84 134.26 259.024C134.26 256.507 134.772 254.096 135.796 251.792C136.863 249.488 138.377 247.461 140.34 245.712C142.345 243.963 144.799 242.576 147.7 241.552C150.644 240.485 153.993 239.952 157.748 239.952C162.057 239.952 165.94 240.635 169.396 242C172.895 243.365 175.881 245.243 178.356 247.632L175.604 252.176ZM213.245 307.024C207.997 307.024 203.944 305.552 201.085 302.608C198.269 299.664 196.861 295.461 196.861 290V251.088H189.309C188.584 251.088 187.965 250.875 187.453 250.448C186.984 249.979 186.749 249.296 186.749 248.4V243.344L197.309 241.872L200.125 222.48C200.296 221.755 200.616 221.2 201.085 220.816C201.597 220.389 202.237 220.176 203.005 220.176H209.341V242H227.773V251.088H209.341V289.168C209.341 291.728 209.96 293.648 211.197 294.928C212.477 296.165 214.098 296.784 216.061 296.784C217.213 296.784 218.194 296.635 219.005 296.336C219.858 296.037 220.584 295.717 221.181 295.376C221.778 294.992 222.29 294.651 222.717 294.352C223.144 294.053 223.528 293.904 223.869 293.904C224.296 293.904 224.616 294.011 224.829 294.224C225.085 294.395 225.341 294.693 225.597 295.12L229.309 301.136C227.261 303.013 224.829 304.464 222.013 305.488C219.197 306.512 216.274 307.024 213.245 307.024ZM281.965 266.256C281.965 263.781 281.602 261.499 280.877 259.408C280.194 257.317 279.17 255.504 277.805 253.968C276.44 252.432 274.776 251.237 272.813 250.384C270.85 249.531 268.589 249.104 266.029 249.104C260.781 249.104 256.642 250.619 253.613 253.648C250.626 256.677 248.728 260.88 247.917 266.256H281.965ZM292.269 296.72C290.733 298.512 288.962 300.069 286.957 301.392C284.952 302.672 282.818 303.717 280.557 304.528C278.296 305.339 275.949 305.936 273.517 306.32C271.128 306.704 268.76 306.896 266.413 306.896C261.933 306.896 257.773 306.149 253.933 304.656C250.136 303.12 246.829 300.901 244.013 298C241.24 295.056 239.064 291.429 237.485 287.12C235.949 282.768 235.181 277.776 235.181 272.144C235.181 267.621 235.885 263.419 237.293 259.536C238.701 255.611 240.706 252.197 243.309 249.296C245.954 246.395 249.176 244.112 252.973 242.448C256.77 240.784 261.037 239.952 265.773 239.952C269.741 239.952 273.389 240.613 276.717 241.936C280.088 243.216 282.989 245.093 285.421 247.568C287.853 250.043 289.752 253.093 291.117 256.72C292.525 260.347 293.229 264.485 293.229 269.136C293.229 271.056 293.016 272.357 292.589 273.04C292.162 273.68 291.373 274 290.221 274H247.597C247.725 277.883 248.28 281.275 249.261 284.176C250.242 287.035 251.586 289.424 253.293 291.344C255.042 293.264 257.112 294.693 259.501 295.632C261.89 296.571 264.557 297.04 267.501 297.04C270.274 297.04 272.664 296.72 274.669 296.08C276.717 295.44 278.466 294.757 279.917 294.032C281.41 293.264 282.648 292.56 283.629 291.92C284.653 291.28 285.549 290.96 286.317 290.96C287.341 290.96 288.13 291.344 288.685 292.112L292.269 296.72ZM306.643 306V240.976H314.131C315.88 240.976 316.968 241.808 317.395 243.472L318.291 249.68C320.68 246.821 323.326 244.496 326.227 242.704C329.171 240.869 332.606 239.952 336.531 239.952C340.84 239.952 344.339 241.147 347.027 243.536C349.715 245.883 351.678 249.083 352.915 253.136C353.854 250.832 355.07 248.848 356.563 247.184C358.056 245.52 359.72 244.155 361.555 243.088C363.39 242.021 365.331 241.232 367.379 240.72C369.47 240.208 371.582 239.952 373.715 239.952C377.171 239.952 380.243 240.507 382.931 241.616C385.662 242.683 387.966 244.261 389.843 246.352C391.72 248.443 393.15 251.024 394.131 254.096C395.112 257.168 395.603 260.667 395.603 264.592V306H383.059V264.592C383.059 259.728 381.992 256.059 379.859 253.584C377.768 251.109 374.696 249.872 370.643 249.872C368.851 249.872 367.144 250.192 365.523 250.832C363.902 251.429 362.472 252.347 361.235 253.584C360.04 254.821 359.08 256.357 358.355 258.192C357.672 260.027 357.331 262.16 357.331 264.592V306H344.787V264.592C344.787 259.557 343.784 255.845 341.779 253.456C339.774 251.067 336.83 249.872 332.947 249.872C330.259 249.872 327.763 250.576 325.459 251.984C323.155 253.392 321.043 255.312 319.123 257.744V306H306.643ZM461.38 229.072C460.953 229.797 460.505 230.331 460.036 230.672C459.567 231.013 458.969 231.184 458.244 231.184C457.476 231.184 456.601 230.843 455.62 230.16C454.639 229.435 453.401 228.645 451.908 227.792C450.457 226.896 448.708 226.107 446.66 225.424C444.612 224.699 442.159 224.336 439.3 224.336C436.612 224.336 434.244 224.699 432.196 225.424C430.191 226.107 428.505 227.067 427.14 228.304C425.775 229.499 424.729 230.928 424.004 232.592C423.321 234.213 422.98 235.984 422.98 237.904C422.98 240.379 423.599 242.427 424.836 244.048C426.116 245.669 427.78 247.056 429.828 248.208C431.876 249.36 434.201 250.363 436.804 251.216C439.407 252.069 442.073 252.965 444.804 253.904C447.535 254.8 450.201 255.845 452.804 257.04C455.407 258.235 457.732 259.749 459.78 261.584C461.828 263.376 463.471 265.595 464.708 268.24C465.988 270.843 466.628 274.043 466.628 277.84C466.628 281.893 465.924 285.691 464.516 289.232C463.151 292.773 461.145 295.867 458.5 298.512C455.855 301.157 452.591 303.248 448.708 304.784C444.868 306.277 440.495 307.024 435.588 307.024C432.644 307.024 429.785 306.725 427.012 306.128C424.239 305.573 421.615 304.784 419.14 303.76C416.665 302.693 414.34 301.435 412.164 299.984C410.031 298.491 408.111 296.827 406.404 294.992L410.308 288.464C410.692 287.952 411.14 287.525 411.652 287.184C412.207 286.843 412.825 286.672 413.508 286.672C414.404 286.672 415.428 287.141 416.58 288.08C417.775 289.019 419.225 290.064 420.932 291.216C422.681 292.325 424.751 293.349 427.14 294.288C429.572 295.227 432.516 295.696 435.972 295.696C438.788 295.696 441.305 295.333 443.524 294.608C445.743 293.84 447.599 292.773 449.092 291.408C450.628 290 451.801 288.315 452.612 286.352C453.423 284.389 453.828 282.213 453.828 279.824C453.828 277.136 453.209 274.939 451.972 273.232C450.735 271.525 449.092 270.096 447.044 268.944C444.996 267.792 442.671 266.811 440.068 266C437.465 265.189 434.799 264.357 432.068 263.504C429.337 262.608 426.671 261.584 424.068 260.432C421.465 259.28 419.14 257.787 417.092 255.952C415.044 254.075 413.401 251.749 412.164 248.976C410.927 246.16 410.308 242.704 410.308 238.608C410.308 235.323 410.948 232.144 412.228 229.072C413.508 226 415.364 223.291 417.796 220.944C420.271 218.555 423.3 216.656 426.884 215.248C430.468 213.797 434.564 213.072 439.172 213.072C444.335 213.072 449.071 213.904 453.38 215.568C457.732 217.189 461.508 219.536 464.708 222.608L461.38 229.072ZM508.23 239.952C513.009 239.952 517.318 240.741 521.158 242.32C525.041 243.856 528.326 246.096 531.014 249.04C533.745 251.941 535.835 255.461 537.286 259.6C538.737 263.696 539.462 268.304 539.462 273.424C539.462 278.544 538.737 283.173 537.286 287.312C535.835 291.451 533.745 294.971 531.014 297.872C528.326 300.773 525.041 303.013 521.158 304.592C517.318 306.128 513.009 306.896 508.23 306.896C503.409 306.896 499.057 306.128 495.174 304.592C491.334 303.013 488.049 300.773 485.318 297.872C482.587 294.971 480.475 291.451 478.982 287.312C477.531 283.173 476.806 278.544 476.806 273.424C476.806 268.304 477.531 263.696 478.982 259.6C480.475 255.461 482.587 251.941 485.318 249.04C488.049 246.096 491.334 243.856 495.174 242.32C499.057 240.741 503.409 239.952 508.23 239.952ZM508.23 297.168C514.374 297.168 518.961 295.099 521.99 290.96C525.019 286.821 526.534 280.997 526.534 273.488C526.534 265.979 525.019 260.155 521.99 256.016C518.961 251.835 514.374 249.744 508.23 249.744C502.001 249.744 497.35 251.835 494.278 256.016C491.249 260.155 489.734 265.979 489.734 273.488C489.734 280.997 491.249 286.821 494.278 290.96C497.35 295.099 502.001 297.168 508.23 297.168ZM610.389 251.088V289.168C610.389 291.728 611.008 293.648 612.245 294.928C613.482 296.165 615.104 296.784 617.109 296.784C618.261 296.784 619.242 296.635 620.053 296.336C620.906 296.037 621.632 295.717 622.229 295.376C622.826 294.992 623.338 294.651 623.765 294.352C624.192 294.053 624.576 293.904 624.917 293.904C625.301 293.904 625.621 294.011 625.877 294.224C626.133 294.395 626.389 294.693 626.645 295.12L630.357 301.136C628.309 303.013 625.856 304.464 622.997 305.488C620.181 306.512 617.258 307.024 614.229 307.024C608.981 307.024 604.928 305.552 602.069 302.608C599.253 299.664 597.845 295.461 597.845 290V251.088H568.725V306H556.181V251.216L549.397 250.384C548.416 250.171 547.605 249.829 546.965 249.36C546.368 248.848 546.069 248.123 546.069 247.184V242H556.181V236.112C556.181 232.4 556.714 229.093 557.781 226.192C558.848 223.291 560.362 220.837 562.325 218.832C564.33 216.784 566.72 215.248 569.493 214.224C572.309 213.157 575.466 212.624 578.965 212.624C581.909 212.624 584.618 213.051 587.093 213.904L586.837 220.176C586.794 220.731 586.624 221.157 586.325 221.456C586.026 221.712 585.621 221.904 585.109 222.032C584.64 222.16 584.042 222.245 583.317 222.288C582.634 222.288 581.888 222.288 581.077 222.288C579.157 222.288 577.408 222.523 575.829 222.992C574.25 223.461 572.906 224.251 571.797 225.36C570.688 226.469 569.834 227.941 569.237 229.776C568.64 231.568 568.341 233.808 568.341 236.496V242H598.293L601.173 222.48C601.301 221.755 601.6 221.2 602.069 220.816C602.581 220.389 603.221 220.176 603.989 220.176H610.389V242H628.821V251.088H610.389Z"
    fill="url(#paint0_linear_0_1)" />
  <path fill-rule="evenodd" clip-rule="evenodd"
    d="M277.286 34.9509C274.683 37.5545 274.683 41.7755 277.286 44.379L310.284 77.3774C312.888 79.9809 317.109 79.9809 319.712 77.3774L352.71 44.379C355.314 41.7755 355.314 37.5545 352.71 34.9509L319.712 1.95262C317.109 -0.650873 312.888 -0.650873 310.284 1.95262L277.286 34.9509ZM314.998 63.2351L291.428 39.665L314.998 16.0947L338.569 39.665L314.998 63.2351ZM330.619 88.2842C328.016 90.8878 328.016 95.1089 330.619 97.7123L363.618 130.71C366.221 133.314 370.442 133.314 373.046 130.71L406.043 97.7123C408.647 95.1089 408.647 90.8878 406.043 88.2842L373.046 55.2859C370.442 52.6825 366.221 52.6825 363.618 55.2859L330.619 88.2842ZM368.331 116.568L344.761 92.9983L368.331 69.4281L391.902 92.9983L368.331 116.568ZM277.286 151.046C274.683 148.442 274.683 144.221 277.286 141.617L310.284 108.619C312.888 106.016 317.109 106.016 319.712 108.619L352.71 141.617C355.314 144.221 355.314 148.442 352.71 151.046L319.712 184.044C317.109 186.648 312.888 186.648 310.284 184.044L277.286 151.046ZM291.428 146.332L314.998 169.902L338.569 146.332L314.998 122.761L291.428 146.332ZM223.953 88.2862C221.349 90.8897 221.349 95.1109 223.953 97.7143L256.951 130.713C259.554 133.316 263.776 133.316 266.379 130.713L299.377 97.7143C301.981 95.1109 301.981 90.8897 299.377 88.2862L266.379 55.2879C263.776 52.6845 259.554 52.6845 256.951 55.2879L223.953 88.2862ZM261.665 116.57L238.095 93.0003L261.665 69.4301L285.235 93.0003L261.665 116.57Z"
    fill="url(#paint1_linear_0_1)" />
  <defs>
    <linearGradient id="paint0_linear_0_1" x1="314.5" y1="179" x2="314.5" y2="333"
      gradientUnits="userSpaceOnUse">
      <stop stop-color="#AA99EC" />
      <stop offset="1" stop-color="#8DA4EF" />
    </linearGradient>
    <linearGradient id="paint1_linear_0_1" x1="314.998" y1="0" x2="314.998" y2="185.997"
      gradientUnits="userSpaceOnUse">
      <stop stop-color="#8DA4EF" />
      <stop offset="1" stop-color="#AA99EC" stop-opacity="0.75" />
    </linearGradient>
  </defs>
</svg>